HIERARCHY
ROOT Hips
{
	OFFSET 0.00000 0.00000 0.00000
	CHANNELS 6 Xposition Yposition Zposition Zrotation Yrotation Xrotation 
	JOINT LHipJoint
	{
		OFFSET 0 0 0
		CHANNELS 3 Zrotation Yrotation Xrotation
		JOINT LeftUpLeg
		{
			OFFSET 1.27966 -1.91611 0.81506
			CHANNELS 3 Zrotation Yrotation Xrotation
			JOINT LeftLeg
			{
				OFFSET 2.49511 -6.85528 0.00000
				CHANNELS 3 Zrotation Yrotation Xrotation
				JOINT LeftFoot
				{
					OFFSET 2.67286 -7.34045 0.00000
					CHANNELS 3 Zrotation Yrotation Xrotation
					JOINT LeftToeBase
					{
						OFFSET 0.22740 -0.62477 2.32102
						CHANNELS 3 Zrotation Yrotation Xrotation
						End Site
						{
							OFFSET 0.00000 -0.00000 1.20480
						}
					}
				}
			}
		}
	}
	JOINT RHipJoint
	{
		OFFSET 0 0 0
		CHANNELS 3 Zrotation Yrotation Xrotation
		JOINT RightUpLeg
		{
			OFFSET -1.09666 -1.91611 0.81505
			CHANNELS 3 Zrotation Yrotation Xrotation
			JOINT RightLeg
			{
				OFFSET -2.51373 -6.90642 0.00000
				CHANNELS 3 Zrotation Yrotation Xrotation
				JOINT RightFoot
				{
					OFFSET -2.70173 -7.42295 0.00000
					CHANNELS 3 Zrotation Yrotation Xrotation
					JOINT RightToeBase
					{
						OFFSET -0.22214 -0.61032 2.18267
						CHANNELS 3 Zrotation Yrotation Xrotation
						End Site
						{
							OFFSET -0.00000 -0.00000 1.13683
						}
					}
				}
			}
		}
	}
	JOINT LowerBack
	{
		OFFSET 0 0 0
		CHANNELS 3 Zrotation Yrotation Xrotation
		JOINT Spine
		{
			OFFSET -0.00990 2.16804 -0.08389
			CHANNELS 3 Zrotation Yrotation Xrotation
			JOINT Spine1
			{
				OFFSET 0.06407 2.15456 0.07285
				CHANNELS 3 Zrotation Yrotation Xrotation
				JOINT Neck
				{
					OFFSET 0 0 0
					CHANNELS 3 Zrotation Yrotation Xrotation
					JOINT Neck1
					{
						OFFSET -0.16931 1.61602 0.24462
						CHANNELS 3 Zrotation Yrotation Xrotation
						JOINT Head
						{
							OFFSET 0.21556 1.63376 -0.33896
							CHANNELS 3 Zrotation Yrotation Xrotation
							End Site
							{
								OFFSET 0.08444 1.69244 -0.14900
							}
						}
					}
				}
				JOINT LeftShoulder
				{
					OFFSET 0 0 0
					CHANNELS 3 Zrotation Yrotation Xrotation
					JOINT LeftArm
					{
						OFFSET 2.89000 1.40150 -0.54392
						CHANNELS 3 Zrotation Yrotation Xrotation
						JOINT LeftForeArm
						{
							OFFSET 5.10755 -0.00000 0.00000
							CHANNELS 3 Zrotation Yrotation Xrotation
							JOINT LeftHand
							{
								OFFSET 3.36253 -0.00000 0.00000
								CHANNELS 3 Zrotation Yrotation Xrotation
								JOINT LeftFingerBase
								{
									OFFSET 0 0 0
									CHANNELS 3 Zrotation Yrotation Xrotation
									JOINT LeftHandIndex1
									{
										OFFSET 0.61909 -0.00000 0.00000
										CHANNELS 3 Zrotation Yrotation Xrotation
										End Site
										{
											OFFSET 0.49912 -0.00000 0.00000
										}
									}
								}
								JOINT LThumb
								{
									OFFSET 0 0 0
									CHANNELS 3 Zrotation Yrotation Xrotation
									End Site
									{
										OFFSET 0.50675 -0.00000 0.50675
									}
								}
							}
						}
					}
				}
				JOINT RightShoulder
				{
					OFFSET 0 0 0
					CHANNELS 3 Zrotation Yrotation Xrotation
					JOINT RightArm
					{
						OFFSET -2.65771 1.70968 -0.54312
						CHANNELS 3 Zrotation Yrotation Xrotation
						JOINT RightForeArm
						{
							OFFSET -5.27387 -0.00000 0.00000
							CHANNELS 3 Zrotation Yrotation Xrotation
							JOINT RightHand
							{
								OFFSET -3.40144 -0.00000 0.00000
								CHANNELS 3 Zrotation Yrotation Xrotation
								JOINT RightFingerBase
								{
									OFFSET 0 0 0
									CHANNELS 3 Zrotation Yrotation Xrotation
									JOINT RightHandIndex1
									{
										OFFSET -0.74282 -0.00000 0.00000
										CHANNELS 3 Zrotation Yrotation Xrotation
										End Site
										{
											OFFSET -0.59888 -0.00000 0.00000
										}
									}
								}
								JOINT RThumb
								{
									OFFSET 0 0 0
									CHANNELS 3 Zrotation Yrotation Xrotation
									End Site
									{
										OFFSET -0.60803 -0.00000 0.60803
									}
								}
							}
						}
					}
				}
			}
		}
	}
}
MOTION
Frames: 7
Frame Time: 0.011976
0.00 0.00 0.00 1.6143 -19.3400 -10.5339 0.0000 0.0000 0.0000 -16.0237 18.9313 -6.4734 6.2136 14.6322 45.8332 2.5543 -8.7122 -28.7915 0.3068 -3.5613 -9.8457 0.0000 0.0000 0.0000 16.7533 7.4819 -7.0607 -7.8770 -16.0280 52.1183 -2.3976 12.0340 -27.9316 -1.7975 8.4309 -24.0308 -2.0283 -6.3271 7.4693 6.5718 -8.3528 -1.9135 8.9916 -4.0135 -4.8913 -5.4208 6.8328 -20.8614 7.4425 9.4066 19.0125 4.6465 4.8842 8.7133 0.0000 0.0000 0.0000 -57.9350 -1.7964 15.9999 21.4235 -32.3193 -6.2748 -0.0000 -0.0000 1.3921 15.5460 26.1565 6.9914 -7.1250 0.0000 -0.0000 -15.6322 56.3006 -4.4077 0.0000 0.0000 0.0000 9.2260 -2.4568 -46.6888 -143.4553 45.8842 -104.0877 0.0000 -0.0000 -9.2182 -54.6860 25.4373 -31.2294 7.1250 -0.0000 -0.0000 -14.2586 8.4014 -16.6766
0.00 0.00 0.00 -6.7257 7.0609 -3.8285 0.0000 0.0000 0.0000 -8.9265 -3.5206 -8.8108 5.0995 13.4950 41.2507 1.3370 -13.3230 -21.3524 0.5388 -4.7031 -13.0638 0.0000 0.0000 0.0000 25.9785 -7.8818 -9.3449 -4.2878 -12.5338 37.6477 -1.6939 2.4661 -23.9496 -0.5037 4.5499 -12.6290 -4.9249 -4.7619 9.8063 6.0271 -6.5681 -6.9869 10.7576 -2.4069 -11.8958 -10.5348 -0.1249 -22.3227 11.7944 0.5242 19.5008 6.0575 0.8620 9.7884 0.0000 0.0000 0.0000 -69.2475 6.8695 20.7264 31.6721 -42.2842 -12.5196 -0.0000 -0.0000 0.0588 17.9954 28.0217 8.6768 -7.1250 0.0000 -0.0000 -14.1562 58.6461 -4.7842 0.0000 0.0000 0.0000 8.5871 8.4350 -73.8540 -136.9622 49.7701 -99.2704 0.0000 -0.0000 -17.8122 -63.1264 25.1582 -39.9937 7.1250 -0.0000 -0.0000 -18.8199 14.0202 -23.9610
0.00 0.00 0.00 3.9683 -25.8710 -10.5617 0.0000 0.0000 0.0000 -18.5684 22.9514 -12.1255 7.0073 15.3380 48.9020 2.5366 -6.3830 -28.8523 0.1193 -2.2270 -6.1335 0.0000 0.0000 0.0000 13.8076 11.1069 -12.4570 -8.8464 -16.7078 55.5574 -1.8287 18.0589 -25.6538 -1.5587 7.8792 -22.3477 -4.4547 -6.5704 10.0691 7.2037 -9.0031 -0.2123 11.3238 -4.3884 -3.9599 -6.4475 6.8958 -19.1849 6.7936 9.8532 18.7313 4.5279 4.9444 8.2730 0.0000 -0.0000 0.0000 -61.4158 -23.7606 18.3626 11.5818 -19.1745 -1.9628 -0.0000 -0.0000 12.2760 19.0564 27.4731 9.0544 -7.1250 0.0000 -0.0000 -12.6996 58.3431 -4.1885 0.0000 -0.0000 0.0000 52.0600 -7.5083 -28.6338 -83.6831 59.8487 -54.5321 0.0000 -0.0000 -30.1174 -48.1945 -5.2693 5.8634 7.1250 -0.0000 -0.0000 -18.2135 -37.2669 -3.6127
0.00 0.00 0.00 2.9558 -26.4704 -10.0465 0.0000 0.0000 0.0000 -17.0048 22.8960 -12.1407 7.5555 15.7824 50.9455 2.9866 -6.7818 -31.3913 0.3272 -3.6765 -10.1682 0.0000 0.0000 0.0000 15.7890 12.4783 -12.1540 -9.4729 -17.1026 57.7117 -2.2643 16.1606 -27.7022 -1.7786 8.3888 -23.9014 -3.4015 -7.2140 9.2943 7.3475 -9.7263 -0.6078 10.8517 -4.7618 -3.9400 -5.2922 8.3893 -19.8717 5.5074 11.8877 18.3263 4.1541 5.8556 8.2663 -0.0000 0.0000 0.0000 -53.1405 -13.0851 4.1766 8.9257 -15.0420 -1.1808 -0.0000 -0.0000 19.5952 20.1656 27.3754 9.5849 -7.1250 0.0000 -0.0000 -11.4526 58.4948 -3.8116 -0.0000 0.0000 0.0000 35.7529 -11.6730 -38.1847 -101.3738 59.5055 -69.8337 0.0000 -0.0000 -27.5783 -49.2423 1.3067 -1.5156 7.1250 -0.0000 -0.0000 -17.3056 -27.8089 -7.5560
0.00 0.00 0.00 -6.7717 11.8405 4.9328 0.0000 0.0000 0.0000 -10.1891 -5.6157 -13.2080 2.0525 8.9745 25.7156 0.2514 -8.0534 -9.8532 0.3549 -3.8275 -10.5918 0.0000 0.0000 0.0000 26.8446 -1.8141 -8.6676 -1.0408 -6.4882 18.2077 -0.3415 -5.4414 -14.3833 -0.2093 2.9456 -8.1274 -0.0584 3.1223 10.9892 -2.1420 3.9779 -3.7046 -3.0399 1.8381 -10.0062 -19.7936 -11.3759 -12.9687 23.2557 -15.1427 8.4541 9.1884 -6.5258 8.2706 0.0000 -0.0000 0.0000 -82.0235 3.6097 15.7625 32.1690 -42.6815 -12.8552 -0.0000 0.0000 -3.3472 23.7872 35.3159 14.2954 -7.1250 0.0000 -0.0000 -13.0837 67.2977 -7.0696 0.0000 -0.0000 0.0000 -10.7543 45.4452 -50.5559 -33.6659 43.8357 -13.8812 0.0000 -0.0000 -27.9749 -30.1451 0.4514 -0.2621 7.1250 -0.0000 -0.0000 -2.8064 -29.4523 -1.0650
0.00 0.00 0.00 -7.4008 18.1617 5.0022 0.0000 0.0000 0.0000 -9.4348 -8.6916 -14.0373 1.9969 8.8597 25.3575 0.0599 -10.1417 -8.0571 0.5948 -4.9376 -13.7307 0.0000 0.0000 0.0000 27.7520 -3.7923 -9.9483 -0.9937 -6.3444 17.7869 -0.2494 -8.1315 -15.6678 -0.0739 1.7534 -4.8245 -1.0634 4.0940 11.5528 -0.9088 5.2325 -1.7028 -1.3373 2.5628 -8.3011 -23.0731 -13.7528 -10.8260 25.6747 -18.2417 5.3777 10.0027 -8.1661 8.2719 0.0000 -0.0000 0.0000 -86.3696 5.1925 19.9253 30.5094 -41.3261 -11.7446 -0.0000 0.0000 -3.8238 20.6983 31.6223 11.2055 -7.1250 0.0000 -0.0000 -13.6057 62.8304 -5.9493 0.0000 -0.0000 0.0000 11.9067 49.7933 -18.4248 -31.0922 41.8114 -12.1313 0.0000 -0.0000 -23.9131 -33.1019 2.3981 -1.5626 7.1250 -0.0000 -0.0000 -4.9858 -27.1093 -2.1737
0.00 0.00 0.00 -13.3405 74.4435 -12.1229 0.0000 0.0000 0.0000 -10.5832 -5.4069 -24.2531 3.8660 11.9800 35.6612 -0.2989 -13.6837 -5.3717 0.3466 -3.7826 -10.4660 0.0000 0.0000 0.0000 25.4892 -5.5905 -5.0128 -2.4227 -9.6959 27.9975 -1.3563 -4.5506 -24.0591 -1.3026 7.2305 -20.4000 0.6686 -2.2371 10.5260 0.6676 -2.8382 -0.1319 0.7639 -1.3970 -6.0425 -24.5928 -19.2014 10.3852 24.8119 -29.8026 4.6442 8.9413 -15.2588 7.3632 0.0000 -0.0000 0.0000 -90.2933 -37.6237 55.4316 82.1256 -59.7644 -53.1859 -0.0000 -0.0000 39.0285 19.2327 33.1292 10.7951 -7.1250 0.0000 -0.0000 -16.5153 63.8989 -7.6682 0.0000 -0.0000 0.0000 74.4553 -13.8827 43.8125 -51.8714 53.7229 -27.6758 0.0000 0.0000 24.6316 25.6076 -1.7866 -0.8561 7.1250 -0.0000 -0.0000 38.1805 -29.2478 18.8099
